# xmcd
#
# Track frame offsets: 
#        150
#        11995
#        24388
#        35282
#        43994
#        52684
#        61214
#        73956
#        84330
#        96104
#        107845
#        118180
#        127831
#        137944
#        148889
#        160044
#        172785
#        182976
#        193780
#        206991
#        218608
#        232200
#        244111
#        259959
#        271043
#
# Disc length: 3828 seconds
#
# Revision: 2
# Processed by: cddbd v1.5.2PL0 Copyright (c) Steve Scherf et al.
# Submitted via: ExactAudioCopyFreeDBPlugin 1.0
#
DISCID=720ef219
DTITLE=Various Artist - Keeping the Faith:  40 Years of Northern Soul
DTITLE=Various Artist - Memories and Souvenirs [box set]
DYEAR=2007
DGENRE=Soul
TTITLE0=The Showstoppers - Ain't Nothing But a Houseparty
TTITLE1=Darrell Banks - Open the Door to Your Heart
TTITLE2=J.J. Barnes - Our Love is in The Pocket
TTITLE3=Chuck Jackson - These Chains of Love (Are Breaking Me Down)
TTITLE4=James Carr - That's What I Want to Know
TTITLE5=Ronnie Milsap - Ain't No Soul (Left in These Ole Shoes)
TTITLE6=The Platters - Sweet Sweet Lovin'
TTITLE7=Father's Angels - Bok To Bach
TTITLE8=Moses and Joshua Dillard - My Elusive Dreams
TTITLE9=Inez and Charlie Foxx - Tightrope
TTITLE10=The Formations - At the Top of the Stairs
TTITLE11=The Fascinations - Girls Are Out to Get You
TTITLE12=The Sapphires - Gotta Have Your Love
TTITLE13=The Parliaments - Don't Be Sore at Me
TTITLE14=Major Lance - The Beat
TTITLE15=Timmy Willis - Mr. Soul Satisfaction
TTITLE16=Richard Temple - That Beatin' Rhythm
TTITLE17=The Superbs - I Wanna Do it with You Baby
TTITLE18=Sandi Sheldon - Gonna Make You Love Me
TTITLE19=The Detroit Executives - Cool Off
TTITLE20=Jimmy Soul Clark - (I'll Be Your Champion) I'll Be Your Winne
TTITLE20=r
TTITLE21=Stemmons Express - Woman Love Thief
TTITLE22=The Carstairs - It Really Hurts Me Girl
TTITLE23=New Sound - Don't Take Your Love from Me
TTITLE24=Beverley Hills - I Don't Care Anymore
EXTD=4 x CD Box Set\nKeeping The Faith 40 Years Of Northern Soul\nMemo
EXTD=ries and Souvenirs
EXTT0=
EXTT1=
EXTT2=
EXTT3=
EXTT4=
EXTT5=
EXTT6=
EXTT7=
EXTT8=
EXTT9=
EXTT10=
EXTT11=
EXTT12=
EXTT13=
EXTT14=
EXTT15=
EXTT16=
EXTT17=
EXTT18=
EXTT19=
EXTT20=
EXTT21=
EXTT22=
EXTT23=
EXTT24=
PLAYORDER=
